<!DOCTYPE svg PUBLIC "-//W3C//DTD SVG 1.1//EN" "http://www.w3.org/Graphics/SVG/1.1/DTD/svg11.dtd">
<!-- Uploaded to: SVG Repo, www.svgrepo.com, Transformed by: SVG Repo Mixer Tools -->
<svg fill="#006fbf" version="1.1" baseProfile="tiny" id="Layer_1" xmlns:x="&amp;ns_extend;" xmlns:i="&amp;ns_ai;" xmlns:graph="&amp;ns_graphs;" xmlns="http://www.w3.org/2000/svg" xmlns:xlink="http://www.w3.org/1999/xlink" xmlns:a="http://ns.adobe.com/AdobeSVGViewerExtensions/3.0/" width="800px" height="800px" viewBox="-0.5 0.5 42 42" xml:space="preserve">
<g id="SVGRepo_bgCarrier" stroke-width="0"/>
<g id="SVGRepo_tracerCarrier" stroke-linecap="round" stroke-linejoin="round"/>
<g id="SVGRepo_iconCarrier"> <path d="M12.5,30.504V33.5h15v-2.996H12.5z M12.5,25.504V28.5h15v-2.996H12.5z M3.5,28.5h3v8.002c-0.01,2.43,0.548,2.998,3,2.998h21 c2.452,0,3-0.452,3-2.998V28.5h3c2.55,0.04,3.029-0.527,3-2.998v-11c0-2.35-0.38-3.002-3-3.002h-3V6.502 c0.029-2.47-0.45-3.002-3-3.002h-21c-2.4,0-3.01,0.572-3,3.002V11.5h-3c-2.58,0-3,0.562-3,3.002v11C0.49,27.932,1.1,28.54,3.5,28.5z M30.5,36.5h-21v-13h21V36.5z M32.38,18.002c0-0.9,0.72-1.619,1.62-1.619s1.62,0.719,1.62,1.619s-0.72,1.62-1.62,1.62 S32.38,18.902,32.38,18.002z M9.5,6.5h21v5.004h-21V6.5z"/> </g>
</svg>